<?xml version="1.0" standalone="no"?><!DOCTYPE svg PUBLIC "-//W3C//DTD SVG 1.1//EN" "http://www.w3.org/Graphics/SVG/1.1/DTD/svg11.dtd"><svg class="icon" width="200px" height="200.00px" viewBox="0 0 1024 1024" version="1.1" xmlns="http://www.w3.org/2000/svg"><path d="M955.086467 650.282437c0-138.001027-89.122807-191.20988-89.122807-191.20988l-0.176009 0c0.197498-28.842909-3.730974-251.733325-172.249039-251.733325-180.174546 0-282.816251 0-360.28053 0-168.517041 0-172.413791 222.890416-172.2122 251.733325l-0.3776 0c0 0-91.743494 15.114233-91.743494 190.160991 0 50.770314 11.365862 83.806731 40.676421 105.315604l0 51.751664c0 39.299051 34.382065 74.106812 74.883501 74.106812l1.237177 0c40.509622 0 67.86669-34.806737 67.86669-74.106812l0-15.912411c62.764486 4.313236 144.701636 4.337795 250.42247 4.38589l0-2.104941c0 0 7.837502 0 9.260921 0 1.425466 0 4.042059 0 4.042059 0l0 2.104941c107.296725-0.049119 190.364629 0.030699 253.848499-4.337795l0 15.864316c0 39.299051 31.976272 74.106812 72.475662 74.106812l1.237177 0c40.511669 0 70.273507-34.806737 70.273507-74.106812l0-52.088332C943.788144 732.845851 955.086467 700.194196 955.086467 650.282437zM898.475122 585.973782c0 32.364105-26.229384 58.59349-58.595536 58.59349s-58.59349-26.229384-58.59349-58.59349c0-32.367175 26.228361-58.59349 58.59349-58.59349S898.475122 553.606607 898.475122 585.973782zM362.904287 254.411317c150.529365 0 150.529365 0 150.529365 0s-0.059352 0 150.470013 0 143.865595 196.47479 143.865595 196.47479L513.433652 450.886107 219.065298 450.886107C219.065298 450.886107 212.376968 254.411317 362.904287 254.411317zM180.725084 527.380292c32.367175 0 58.595536 26.226315 58.595536 58.59349 0 32.364105-26.227338 58.59349-58.595536 58.59349-32.363082 0-58.591443-26.229384-58.591443-58.59349C122.133641 553.606607 148.362003 527.380292 180.725084 527.380292zM668.036799 707.735963 380.064109 707.735963c-31.16479 0-56.42715-25.119097-56.42715-56.281841s25.26236-56.281841 56.42715-56.281841l287.973714 0c31.16479 0 56.42715 25.119097 56.42715 56.281841S699.201589 707.735963 668.036799 707.735963z" /></svg>
