<?xml version="1.0" standalone="no"?><!DOCTYPE svg PUBLIC "-//W3C//DTD SVG 1.1//EN" "http://www.w3.org/Graphics/SVG/1.1/DTD/svg11.dtd"><svg class="icon" width="200px" height="200.00px" viewBox="0 0 1024 1024" version="1.1" xmlns="http://www.w3.org/2000/svg"><path d="M979.904 307.264l-717.024 0-57.888-238.848-160.864 0 0 34.112 134.016 0 166.336 686.176c-35.456 10.336-61.536 42.688-61.536 81.504 0 47.104 38.176 85.312 85.312 85.312s85.312-38.208 85.312-85.312c0-19.296-6.656-36.896-17.44-51.168l239.584 0c-10.784 14.272-17.44 31.904-17.44 51.168 0 47.104 38.176 85.312 85.28 85.312s85.312-38.208 85.312-85.312c0-47.136-38.176-85.28-85.312-85.312l0 0-364.896 0-16.544-68.256 478.976 0 138.784-409.44zM419.424 870.272c0 28.224-22.944 51.168-51.168 51.168s-51.168-22.944-51.168-51.168c0-28.224 22.944-51.168 51.168-51.168s51.168 22.976 51.168 51.168zM794.752 870.272c0 28.224-22.976 51.168-51.2 51.168s-51.168-22.944-51.168-51.168c0-28.224 22.944-51.168 51.168-51.168 28.224 0 51.2 22.976 51.2 51.168zM353.856 682.592l-82.72-341.184 661.184 0-115.68 341.184-462.784 0z" /></svg>
