<?xml version="1.0" standalone="no"?><!DOCTYPE svg PUBLIC "-//W3C//DTD SVG 1.1//EN" "http://www.w3.org/Graphics/SVG/1.1/DTD/svg11.dtd"><svg t="1529480647063" class="icon" style="" viewBox="0 0 1024 1024" version="1.1" xmlns="http://www.w3.org/2000/svg" p-id="1041" xmlns:xlink="http://www.w3.org/1999/xlink" width="200" height="200"><defs><style type="text/css"></style></defs><path d="M270.928 62c-208.928 0-208.928 0-208.928 0v208.928c0 0 0 208.928 208.928 208.928s208.928 0 208.928 0v-208.928c0 0 0-208.928-208.928-208.928zM415.572 415.572h-144.643c-135.698 0-144.297-120.848-144.643-144.643v-144.643h144.643c135.698 0 144.297 120.848 144.643 144.643v144.643zM753.072 62c0 0-208.928 0-208.928 208.928s0 208.928 0 208.928h208.928c0 0 208.928 0 208.928-208.928s0-208.928 0-208.928h-208.928zM897.714 270.928c0 135.698-120.848 144.297-144.643 144.643h-144.643v-144.643c0-135.697 120.848-144.297 144.643-144.643h144.643v144.643zM753.072 544.142c-208.928 0-208.928 0-208.928 0v208.928c0 0 0 208.928 208.928 208.928s208.928 0 208.928 0v-208.928c0 0 0-208.928-208.928-208.928zM897.714 897.714h-144.643c-135.698 0-144.297-120.848-144.643-144.643v-144.643h144.643c135.697 0 144.297 120.848 144.643 144.643v144.643zM62 753.072c0 208.928 0 208.928 0 208.928h208.928c0 0 208.928 0 208.928-208.928s0-208.928 0-208.928h-208.928c0 0-208.928 0-208.928 208.928zM415.572 753.072c0 135.697-120.848 144.297-144.643 144.643h-144.643v-144.643c0-135.698 120.848-144.297 144.643-144.643h144.643v144.643z" p-id="1042"></path></svg>