<?xml version="1.0" standalone="no"?><!DOCTYPE svg PUBLIC "-//W3C//DTD SVG 1.1//EN" "http://www.w3.org/Graphics/SVG/1.1/DTD/svg11.dtd"><svg t="1529560939140" class="icon" style="" viewBox="0 0 1024 1024" version="1.1" xmlns="http://www.w3.org/2000/svg" p-id="3002" xmlns:xlink="http://www.w3.org/1999/xlink" width="200" height="200"><defs><style type="text/css"></style></defs><path d="M849.066667 448c-12.8 0-27.733333 2.133333-38.4 8.533333V384c0-12.8-8.533333-21.333333-21.333334-21.333333H128c-12.8 0-21.333333 8.533333-21.333333 21.333333v275.2c0 153.6 123.733333 277.333333 277.333333 277.333333h147.2c153.6 2.133333 279.466667-123.733333 279.466667-277.333333v-155.733333h2.133333c10.666667-8.533333 23.466667-10.666667 38.4-10.666667 38.4 0 68.266667 29.866667 68.266667 68.266667 0 34.133333-14.933333 53.333333-44.8 59.733333-10.666667 2.133333-19.2 12.8-17.066667 25.6 2.133333 10.666667 10.666667 17.066667 21.333333 17.066667h4.266667c49.066667-10.666667 78.933333-49.066667 78.933333-102.4-2.133333-64-51.2-113.066667-113.066666-113.066667zM768 659.2C768 789.333333 661.333333 896 531.2 896H384c-130.133333 0-234.666667-104.533333-234.666667-234.666667V405.333333h618.666667v253.866667zM277.333333 320c-12.8 0-21.333333-8.533333-21.333333-21.333333 0-14.933333-8.533333-25.6-17.066667-40.533334-10.666667-17.066667-25.6-36.266667-25.6-64 0-55.466667 51.2-81.066667 53.333334-83.2 10.666667-4.266667 23.466667 0 27.733333 8.533334 4.266667 10.666667 0 23.466667-8.533333 27.733333 0 0-29.866667 17.066667-29.866667 44.8 0 14.933333 8.533333 25.6 17.066667 40.533333 10.666667 17.066667 25.6 36.266667 25.6 64 0 12.8-8.533333 23.466667-21.333334 23.466667zM469.333333 320c-12.8 0-21.333333-8.533333-21.333333-21.333333 0-14.933333-8.533333-25.6-17.066667-40.533334-10.666667-17.066667-25.6-36.266667-25.6-64 0-55.466667 51.2-81.066667 53.333334-83.2 10.666667-4.266667 23.466667 0 27.733333 8.533334 4.266667 10.666667 2.133333 23.466667-8.533333 27.733333 0 0-29.866667 17.066667-29.866667 44.8 0 14.933333 8.533333 25.6 17.066667 40.533333 10.666667 17.066667 25.6 36.266667 25.6 64 0 12.8-10.666667 23.466667-21.333334 23.466667zM663.466667 320c-12.8 0-21.333333-8.533333-21.333334-21.333333 0-14.933333-8.533333-25.6-17.066666-40.533334-10.666667-17.066667-25.6-36.266667-25.6-64 0-55.466667 51.2-81.066667 53.333333-83.2 10.666667-4.266667 23.466667 0 27.733333 8.533334 4.266667 10.666667 0 23.466667-8.533333 27.733333 0 0-29.866667 17.066667-29.866667 44.8 0 14.933333 8.533333 25.6 17.066667 40.533333 10.666667 17.066667 25.6 36.266667 25.6 64 0 12.8-10.666667 23.466667-21.333333 23.466667z" p-id="3003"></path></svg>