<?xml version="1.0" standalone="no"?><!DOCTYPE svg PUBLIC "-//W3C//DTD SVG 1.1//EN" "http://www.w3.org/Graphics/SVG/1.1/DTD/svg11.dtd"><svg t="1525575437432" class="icon" style="" viewBox="0 0 1024 1024" version="1.1" xmlns="http://www.w3.org/2000/svg" p-id="6850" xmlns:xlink="http://www.w3.org/1999/xlink" width="200" height="200"><defs><style type="text/css"></style></defs><path d="M884.224 221.173H399.672v-18.637c0-41.168-33.378-74.547-74.547-74.547H138.759c-41.168 0-74.547 33.378-74.547 74.547v615.008c0 41.167 33.378 74.547 74.547 74.547h745.465c41.168 0 74.547-33.38 74.547-74.547V295.72c0-41.168-33.379-74.547-74.547-74.547z m-782.739-18.636c0-20.549 16.726-37.273 37.273-37.273h186.366c20.547 0 37.273 16.725 37.273 37.273V258.447h521.825c20.547 0 37.273 16.725 37.273 37.273v37.273h-820.01V202.537z m782.739 652.282H138.759c-20.547 0-37.273-16.726-37.273-37.273v-447.28h820.012v447.279c-0.001 20.548-16.727 37.274-37.274 37.274z" p-id="6851"></path></svg>