<?xml version="1.0" standalone="no"?><!DOCTYPE svg PUBLIC "-//W3C//DTD SVG 1.1//EN" "http://www.w3.org/Graphics/SVG/1.1/DTD/svg11.dtd"><svg t="1529480844972" class="icon" style="" viewBox="0 0 1024 1024" version="1.1" xmlns="http://www.w3.org/2000/svg" p-id="2022" xmlns:xlink="http://www.w3.org/1999/xlink" width="200" height="200"><defs><style type="text/css"></style></defs><path d="M968.533333 358.4c-8.533333-4.266667-19.2-2.133333-25.6 6.4l-108.8 130.133333-55.466666-100.266666c-4.266667-6.4-8.533333-10.666667-17.066667-10.666667-6.4 0-12.8 2.133333-19.2 6.4l-64 70.4-87.466667-164.266667 38.4-23.466666c6.4-4.266667 10.666667-10.666667 10.666667-19.2V128c0-8.533333-4.266667-14.933333-10.666667-19.2l-106.666666-64c-6.4-4.266667-14.933333-4.266667-21.333334 0l-106.666666 64c-6.4 4.266667-10.666667 10.666667-10.666667 19.2v128c0 8.533333 4.266667 14.933333 10.666667 19.2l38.4 23.466667-87.466667 164.266666-61.866667-70.4c-6.4-6.4-12.8-8.533333-19.2-8.533333-6.4 0-12.8 4.266667-17.066666 10.666667l-57.6 100.266666L81.066667 362.666667c-6.4-8.533333-17.066667-10.666667-25.6-6.4-8.533333 6.4-14.933333 14.933333-12.8 25.6L138.666667 853.333333l-21.333334 102.4c-2.133333 6.4 0 12.8 4.266667 17.066667 4.266667 6.4 10.666667 8.533333 17.066667 8.533333h744.533333c6.4 0 12.8-2.133333 17.066667-8.533333 4.266667-4.266667 6.4-10.666667 4.266666-17.066667l-19.2-102.4L981.333333 381.866667c2.133333-8.533333-4.266667-19.2-12.8-23.466667z m-211.2 83.2l49.066667 87.466667-55.466667 64-49.066666-91.733334 55.466666-59.733333zM426.666667 243.2V140.8l85.333333-51.2 85.333333 51.2v104.533333l-85.333333 51.2-85.333333-53.333333z m-155.733334 198.4l53.333334 59.733333-49.066667 91.733334-53.333333-64 49.066666-87.466667zM164.266667 938.666667l8.533333-42.666667h676.266667l8.533333 42.666667H164.266667z m678.4-89.6v4.266666h-661.333334v-4.266666L102.4 454.4l160 189.866667c4.266667 6.4 10.666667 8.533333 19.2 8.533333 6.4 0 12.8-4.266667 17.066667-10.666667l170.666666-324.266666 32 19.2c2.133333 4.266667 6.4 4.266667 10.666667 4.266666s8.533333 0 10.666667-2.133333L554.666667 320l172.8 322.133333c4.266667 6.4 8.533333 10.666667 17.066666 10.666667 6.4 0 14.933333-2.133333 19.2-8.533333l160-189.866667-81.066666 394.666667zM490.666667 746.666667h42.666666v-106.666667h-42.666666v106.666667z" p-id="2023"></path></svg>