<?xml version="1.0" standalone="no"?><!DOCTYPE svg PUBLIC "-//W3C//DTD SVG 1.1//EN" "http://www.w3.org/Graphics/SVG/1.1/DTD/svg11.dtd"><svg t="1529419560869" class="icon" style="" viewBox="0 0 1024 1024" version="1.1" xmlns="http://www.w3.org/2000/svg" p-id="1366" xmlns:xlink="http://www.w3.org/1999/xlink" width="200" height="200"><defs><style type="text/css"></style></defs><path d="M896 384H128c-17.6 0-32-14.4-32-32s14.4-32 32-32h768c17.6 0 32 14.4 32 32s-14.4 32-32 32z m-64 544H192c-52.8 0-96-43.2-96-96V224c0-52.8 43.2-96 96-96 17.6 0 32 14.4 32 32s-14.4 32-32 32-32 14.4-32 32v608c0 17.6 14.4 32 32 32h640c17.6 0 32-14.4 32-32V224c0-17.6-14.4-32-32-32s-32-14.4-32-32 14.4-32 32-32c52.8 0 96 43.2 96 96v608c0 52.8-43.2 96-96 96zM320 224c-17.6 0-32-14.4-32-32v-64c0-17.6 14.4-32 32-32s32 14.4 32 32v64c0 17.6-14.4 32-32 32z m256-32H448c-17.6 0-32-14.4-32-32s14.4-32 32-32h128c17.6 0 32 14.4 32 32s-14.4 32-32 32z m128 32c-17.6 0-32-14.4-32-32v-64c0-17.6 14.4-32 32-32s32 14.4 32 32v64c0 17.6-14.4 32-32 32z" p-id="1367"></path></svg>