<svg width="200" height="200" viewBox="0 0 1024 1024" xmlns="http://www.w3.org/2000/svg"><path d="M96 320a32 32 0 1 1 0-64h832a32 32 0 0 1 0 64H96zm736 0h64v448a160 160 0 0 1-160 160H288a160 160 0 0 1-160-160V320h64v96h-64v-96h64v448a96 96 0 0 0 96 96h448a96 96 0 0 0 96-96V320zM320 432a32 32 0 0 1 64 0v320a32 32 0 0 1-64 0V432zm320 0a32 32 0 0 1 64 0v320a32 32 0 0 1-64 0V432zM288 256h-64v-64a96 96 0 0 1 96-96h384a96 96 0 0 1 96 96v64h-64v-32h64v32h-64v-64a32 32 0 0 0-32-32H320a32 32 0 0 0-32 32v64z"/></svg>