<svg width="200" height="200" viewBox="0 0 1024 1024" xmlns="http://www.w3.org/2000/svg"><path d="M517.689 796.444c-45.511 0-85.333-17.066-119.467-51.2L73.956 381.156C51.2 358.4 56.889 324.266 79.644 301.51c22.756-22.755 56.89-17.067 79.645 5.689l329.955 364.089c5.69 5.689 17.067 11.378 28.445 11.378s22.755-5.69 34.133-17.067l312.89-364.089c22.755-22.755 56.888-28.444 79.644-5.689 22.755 22.756 28.444 56.89 5.688 79.645l-312.888 364.09c-28.445 39.822-68.267 56.888-119.467 56.888 5.689 0 0 0 0 0z"/></svg>