<?xml version="1.0" standalone="no"?><!DOCTYPE svg PUBLIC "-//W3C//DTD SVG 1.1//EN" "http://www.w3.org/Graphics/SVG/1.1/DTD/svg11.dtd"><svg class="icon" width="200px" height="200.00px" viewBox="0 0 1024 1024" version="1.1" xmlns="http://www.w3.org/2000/svg"><path d="M511.575 32c-263.596 0-479.575 215.978-479.575 479.575v240.638c0 59.522 23.809 116.493 60.372 159.008 5.952 8.503 14.455 14.455 20.407 20.408 42.516 36.563 99.487 60.372 159.008 60.372h60.372v-480.425h-60.372c-71.426 0-135.2 30.611-179.415 81.63v-81.63c0-230.434 188.768-419.203 419.203-419.203 231.284 0 420.053 188.768 420.053 419.203v81.63c-45.067-51.019-107.99-81.63-179.415-81.63h-60.372v480.425h60.372c59.522 0 116.493-23.809 159.008-60.372 8.503-5.952 14.455-14.455 20.408-20.407 36.563-42.516 60.372-99.487 60.372-159.008v-240.638c0-263.596-215.978-479.575-480.425-479.575zM271.787 571.947v359.681c-98.636 0-179.415-80.78-179.415-179.415 0-99.487 80.78-180.265 179.415-180.265zM752.213 931.628v-359.681c89.283 0 179.415 80.78 179.415 180.265 0 98.636-90.133 179.415-179.415 179.415z"  /></svg>
