<svg width="200" height="173.71" viewBox="0 0 1179 1024" xmlns="http://www.w3.org/2000/svg"><path d="M142.32 540.267l350.135 373.654c54.296 63.853 139.806 63.884 195.033-1.055l362.205-388.67c42.662-48.868 65.466-112.13 65.466-182.903A279.24 279.24 0 0 0 614.141 171.64a30.996 30.996 0 0 1-25.535 12.131 30.996 30.996 0 0 1-25.504-12.131A279.24 279.24 0 0 0 62.053 341.293c0 72.85 28.793 144.243 77.412 195.5a33.255 33.255 0 0 1 2.854 3.474zm-54.608 31.927A349.732 349.732 0 0 1 0 341.294C0 152.805 152.806 0 341.293 0c95.066 0 183.709 39.156 247.313 106.111A340.486 340.486 0 0 1 835.951.001c188.486 0 341.293 152.805 341.293 341.292 0 80.794-25.07 154.637-72.2 213.464a32.382 32.382 0 0 1-4.095 5.491l-5.181 5.554a327.719 327.719 0 0 1-8.315 9.09c-.621.621-1.21 1.242-1.862 1.8L733.811 954.07c-79.056 93.05-209.554 93.018-287.617 1.148L90.784 576.041a31.244 31.244 0 0 1-3.103-3.847z"/></svg>