<?xml version="1.0" standalone="no"?><!DOCTYPE svg PUBLIC "-//W3C//DTD SVG 1.1//EN" "http://www.w3.org/Graphics/SVG/1.1/DTD/svg11.dtd"><svg t="1529562523163" class="icon" style="" viewBox="0 0 1024 1024" version="1.1" xmlns="http://www.w3.org/2000/svg" p-id="5285" xmlns:xlink="http://www.w3.org/1999/xlink" width="200" height="200"><defs><style type="text/css"></style></defs><path d="M989.9222626666667 444.3410103333334L580.1490096666668 34.909091333333336H119.41107066666666l870.511192 870.596525V444.3410103333334z" p-id="5286"></path><path d="M493.7399596666666 345.23927233333336l-32.726626-32.68008 63.282424-63.371637-65.454546-65.361454-63.282424 63.371636-32.727919-32.680081L516.2330506666667 60.89826233333335l32.727919 32.681374-61.895111 61.981737 65.454545 65.361455 61.895111-61.981737 32.72792 32.68008L493.7399596666666 345.23927233333336zM604.8452526666667 306.84703033333335c24.031677-24.064 50.614303-36.636444 79.751757-37.714748 29.134869-1.078303 55.240404 9.903838 78.314021 32.943839 21.950061 21.91903 32.323232 46.871273 31.120808 74.851555-1.202424 27.982869-13.257697 53.443232-36.167111 76.383677-23.901091 23.934707-50.253576 36.406303-79.057455 37.417374-28.806465 1.011071-54.480162-9.739636-77.02497-32.252121-22.016-21.986263-32.689131-47.067798-32.015515-75.245899 0.674909-28.179394 12.366869-53.638465 35.078465-76.383677z m36.196848 32.579232c-14.921697 14.943677-23.517091 30.756202-25.782303 47.437576-2.270384 16.68396 2.879354 31.297939 15.440162 43.843232 12.827152 12.806465 27.34804 18.232889 43.566545 16.270223 16.217212-1.960081 31.985778-10.608485 47.303111-25.947798 15.976727-15.998707 25.133253-32.109899 27.46699-48.332283 2.333737-16.219798-2.813414-30.637253-15.441454-43.247192-12.825859-12.807758-27.677737-18.133333-44.558222-15.972849-16.877899 2.157899-32.876606 10.808889-47.994829 25.949091zM940.0177776666667 537.5599193333333l-43.835475-43.770828-126.661818 126.841535-32.827475-32.780929 126.663112-126.841536-43.734627-43.672565 26.739071-26.777859 120.39499 120.226909-26.737778 26.775273z" p-id="5287" fill="#fff"></path></svg>