<?xml version="1.0" standalone="no"?><!DOCTYPE svg PUBLIC "-//W3C//DTD SVG 1.1//EN" "http://www.w3.org/Graphics/SVG/1.1/DTD/svg11.dtd"><svg class="icon" width="200px" height="200.00px" viewBox="0 0 1024 1024" version="1.1" xmlns="http://www.w3.org/2000/svg"><path d="M550.982338 707.887412c-46.26265-8.786107-93.340875 8.095375-122.903168 43.763736-24.284079 29.313629-34.092469 67.908646-26.895557 105.925495 9.517771 50.366108 49.758264 90.647533 100.124372 100.207259 8.246825 1.574868 16.590863 2.376117 24.823362 2.376117 38.044478 0 73.79368-13.509688 98.079806-42.824341 19.008936-22.958898 28.996404-49.592488 29.05064-77.882811l0.193405 0L653.455197 362.420263l254.109442-76.226079c17.226337-5.180999 28.801976-20.748556 28.801976-38.73521L936.366615 104.318904c0-12.916171-5.940292-24.741497-16.314571-32.44904-10.360975-7.721869-23.387663-10.000771-35.737946-6.285147l-230.333946 69.097728c-17.240663 5.166673-28.816303 20.720927-28.816303 38.73521l0 579.476811C606.721827 730.072691 580.723709 713.551412 550.982338 707.887412zM653.454174 173.416632c0-5.415336 3.467985-10.083659 8.647961-11.631922l230.348272-69.097728c1.161453-0.35918 2.348488-0.524956 3.523243-0.524956 2.554172 0 5.068436 0.815575 7.196912 2.403746 3.122107 2.320858 4.90266 5.870708 4.90266 9.753131l0 143.140071c0 5.40101-3.479241 10.084683-8.645914 11.631922l-245.973134 73.794703L653.454174 173.416632zM602.424964 895.979278c-23.026436 27.79402-59.565631 40.862663-95.840812 34.038234-39.038108-7.432273-70.217225-38.651298-77.606519-77.69043-5.622044-29.699416 1.988284-59.814294 20.886703-82.607416 18.883069-22.821775 46.691415-35.889395 76.267011-35.889395 6.479575 0 13.05534 0.608867 19.574824 1.852184 39.037085 7.40362 70.216201 38.623669 77.607542 77.662801C628.934734 843.043648 621.324406 873.158527 602.424964 895.979278zM568.582181 301.92854 87.632361 301.92854l0-28.291346 480.94982 0L568.582181 301.92854zM568.582181 443.384249 87.632361 443.384249l0-28.291346 480.94982 0L568.582181 443.384249zM568.582181 584.831772 87.632361 584.831772l0-28.284183 480.94982 0L568.582181 584.831772z" /></svg>
