<?xml version="1.0" standalone="no"?><!DOCTYPE svg PUBLIC "-//W3C//DTD SVG 1.1//EN" "http://www.w3.org/Graphics/SVG/1.1/DTD/svg11.dtd"><svg class="icon" width="200px" height="200.00px" viewBox="0 0 1024 1024" version="1.1" xmlns="http://www.w3.org/2000/svg"><path d="M512 702.836364c-104.727273 0-190.836364-86.109091-190.836364-190.836364V190.836364C321.163636 86.109091 407.272727 0 512 0s190.836364 86.109091 190.836364 190.836364V512c0 104.727273-86.109091 190.836364-190.836364 190.836364z m0-642.327273c-72.145455 0-130.327273 58.181818-130.327273 130.327273V512c0 72.145455 58.181818 130.327273 130.327273 130.327273s130.327273-58.181818 130.327273-130.327273V190.836364c0-72.145455-58.181818-130.327273-130.327273-130.327273z"  /><path d="M404.945455 1024c-16.290909 0-30.254545-13.963636-30.254546-30.254545 0-16.290909 13.963636-30.254545 30.254546-30.254546h76.8V861.090909c-86.109091-6.981818-167.563636-46.545455-225.745455-111.709091-62.836364-62.836364-95.418182-148.945455-95.418182-237.381818 0-16.290909 13.963636-30.254545 30.254546-30.254545s30.254545 13.963636 30.254545 30.254545c0 160.581818 130.327273 290.909091 290.909091 290.909091S802.909091 672.581818 802.909091 512c0-16.290909 13.963636-30.254545 30.254545-30.254545s30.254545 13.963636 30.254546 30.254545c0 88.436364-32.581818 174.545455-95.418182 239.709091-60.509091 65.163636-139.636364 102.4-225.745455 111.709091v100.072727h76.8c16.290909 0 30.254545 13.963636 30.254546 30.254546 0 16.290909-13.963636 30.254545-30.254546 30.254545h-214.10909z"  /></svg>