<svg width="200" height="200" viewBox="0 0 1024 1024" xmlns="http://www.w3.org/2000/svg"><path d="M1000.715 15.29A63.964 63.964 0 0 0 959.458.258a60.766 60.766 0 0 0-11.193 0L404.572 96.204a63.964 63.964 0 0 0-52.77 63.964v549.13a205.644 205.644 0 0 0-121.212-37.419 255.856 255.856 0 0 0-80.915 13.433A223.874 223.874 0 0 0 15.991 796.609 152.554 152.554 0 0 0 9.275 916.54a180.698 180.698 0 0 0 175.9 107.14 255.856 255.856 0 0 0 80.915-13.433A223.874 223.874 0 0 0 399.774 898.95a159.91 159.91 0 0 0 15.991-67.162v-511.71h11.194l532.5-95.946v389.22a205.644 205.644 0 0 0-121.212-37.419 255.856 255.856 0 0 0-80.915 13.433 223.874 223.874 0 0 0-133.684 111.297 152.554 152.554 0 0 0-6.716 119.932 180.378 180.378 0 0 0 176.22 107.14 255.856 255.856 0 0 0 80.914-13.433 223.874 223.874 0 0 0 133.365-111.297 159.91 159.91 0 0 0 15.991-67.162V64.223a63.964 63.964 0 0 0-22.707-48.933zM245.94 949.802c-76.757 25.586-155.752 0-176.86-55.648s23.986-122.491 100.743-148.077 155.752 0 176.86 55.649-23.986 122.49-100.743 148.076zm607.657-95.946c-76.757 25.586-155.752 0-176.86-55.648S700.724 675.717 777.48 650.13s155.752 0 176.86 55.649-26.865 122.49-102.022 148.076zm105.86-693.688l-543.693 95.946v-95.946l543.693-95.946v95.946z"/></svg>