<?xml version="1.0" standalone="no"?><!DOCTYPE svg PUBLIC "-//W3C//DTD SVG 1.1//EN" "http://www.w3.org/Graphics/SVG/1.1/DTD/svg11.dtd"><svg class="icon" width="200px" height="200.00px" viewBox="0 0 1024 1024" version="1.1" xmlns="http://www.w3.org/2000/svg"><path d="M879.674 544.51l-158.254-0.221c-8.534 2.287-17.305-2.776-19.588-11.307l-23.862-75.877-74.742 350.891c0 0-1.523 18.507-11.518 18.507s-26.9 0.281-26.9 0.281c-8.259 2.213-16.748-2.687-18.961-10.949l-92.741-457.648-70.305 330.634c-2.261 8.291-11.94 15.206-20.385 12.986l-24.876 0.339c-8.723 2.293-17.685-2.789-20.023-11.349L270.629 544.51 143.993 544.51c-8.831 0-15.993-7.159-15.993-15.993l0-31.986c0-8.831 7.162-15.993 15.993-15.993l157.429-0.516c9.565-0.304 17.685 0.788 20.023 9.351l24.386 76.092 68.642-358.907c0 0 3.4-10.894 14.397-10.894 10.994 0 34.107-0.448 34.107-0.448 8.262-2.213 16.751 2.687 18.965 10.949l91.912 454.126 67.948-326.182c2.213-8.262 8.707-15.161 16.965-12.948l27.316-0.333c8.531-2.287 17.301 2.776 19.588 11.31l46.665 148.4 127.337 0c8.835 0 15.993 7.162 15.993 15.993l0 31.986C895.667 537.352 888.508 544.51 879.674 544.51z" /></svg>
