<?xml version="1.0" standalone="no"?><!DOCTYPE svg PUBLIC "-//W3C//DTD SVG 1.1//EN" "http://www.w3.org/Graphics/SVG/1.1/DTD/svg11.dtd"><svg class="icon" width="200px" height="200.00px" viewBox="0 0 1024 1024" version="1.1" xmlns="http://www.w3.org/2000/svg"><path d="M999.04982 198.574348L825.43283 24.967598a85.318594 85.318594 0 0 0-120.615424 0L33.747549 696.047695c-0.317436 0.317436-0.419835 0.74751-0.716791 1.085426a28.24156 28.24156 0 0 0-5.242813 7.89494c-0.081919 0.184318-0.225277 0.348156-0.307197 0.542713a28.31324 28.31324 0 0 0-1.945575 8.007578L0.119817 992.993675a28.446358 28.446358 0 0 0 28.323479 31.006325c0.860149 0 1.710058 0 2.570207-0.112639l279.425563-25.405116a28.364439 28.364439 0 0 0 8.017818-1.945575c0.194558-0.081919 0.368635-0.235517 0.563193-0.317436a28.221081 28.221081 0 0 0 7.87446-5.232574c0.327676-0.296956 0.75775-0.399355 1.085426-0.716791l533.39481-533.394809 0.081919-0.0512s0-0.061439 0.051199-0.081919l137.541929-137.541929a85.390273 85.390273 0 0 0 0-120.625664z m-411.745158 24.30945l213.828958 213.828958-493.264761 493.264761L94.039901 716.148559zM59.838737 964.178682l16.824105-185.013965 168.189859 168.189859z m899.009355-685.180398L841.345588 396.500788 627.50639 182.68207 745.019134 65.169326a28.405398 28.405398 0 0 1 40.211968 0l173.61699 173.59651a28.497557 28.497557 0 0 1 0 40.232448z"  /><path d="M333.273976 719.16932a28.333719 28.333719 0 0 0 20.100864-8.325014l254.040926-254.030686a28.426902 28.426902 0 1 0-40.201728-40.201728L313.173112 670.642578a28.425878 28.425878 0 0 0 20.100864 48.526742z"  /></svg>
