<?xml version="1.0" standalone="no"?><!DOCTYPE svg PUBLIC "-//W3C//DTD SVG 1.1//EN" "http://www.w3.org/Graphics/SVG/1.1/DTD/svg11.dtd"><svg class="icon" width="200px" height="200.00px" viewBox="0 0 1024 1024" version="1.1" xmlns="http://www.w3.org/2000/svg"><path d="M703.591573 64.021106 255.859295 64.021106c-35.322483 0-63.956637 28.634154-63.956637 63.956637l0 767.535931c0 35.322483 28.634154 63.956637 63.956637 63.956637l447.732278 0c35.322483 0 63.956637-28.634154 63.956637-63.956637L767.54821 127.977743C767.54821 92.65526 738.914056 64.021106 703.591573 64.021106zM703.58748 863.787088c0 17.520025-14.202467 31.722492-31.722492 31.722492L287.585881 895.509581c-17.520025 0-31.722492-14.202467-31.722492-31.722492L255.863389 159.704328c0-17.520025 14.202467-31.722492 31.722492-31.722492l384.279107 0c17.520025 0 31.722492 14.202467 31.722492 31.722492L703.58748 863.787088zM575.667042 224.180805c0 17.520025-14.202467 31.722492-31.722492 31.722492L415.507342 255.903298c-17.520025 0-31.722492-14.202467-31.722492-31.722492l0-0.515746c0-17.520025 14.202467-31.722492 31.722492-31.722492l128.437208 0c17.520025 0 31.722492 14.202467 31.722492 31.722492L575.667042 224.180805zM479.725946 831.54885m-31.980365 0a31.252 31.252 0 1 0 63.960731 0 31.252 31.252 0 1 0-63.960731 0ZM255.863389 735.49826l447.724091 0 0 31.722492-447.724091 0 0-31.722492Z" /></svg>