<?xml version="1.0" standalone="no"?><!DOCTYPE svg PUBLIC "-//W3C//DTD SVG 1.1//EN" "http://www.w3.org/Graphics/SVG/1.1/DTD/svg11.dtd"><svg class="icon" width="200px" height="200.00px" viewBox="0 0 1024 1024" version="1.1" xmlns="http://www.w3.org/2000/svg"><path d="M312.896 288c0-68.736-55.68-124.416-124.416-124.416S64 219.264 64 288s55.68 124.416 124.416 124.416S312.896 356.736 312.896 288zM561.728 113.728c-82.432 0-149.312 66.944-149.312 149.376s66.88 149.312 149.312 149.312c82.496 0 149.376-66.88 149.376-149.312S644.224 113.728 561.728 113.728zM163.584 561.728 113.728 561.728l0 298.688 547.584 0L661.312 561.728 362.688 561.728 362.688 512l298.624 0L661.312 462.272 163.584 462.272 163.584 561.728zM213.312 661.312l149.376 0 0 149.376L213.312 810.688 213.312 661.312zM760.896 561.728l0 199.104L960 910.272 960 412.416 760.896 561.728z" /></svg>
