<?xml version="1.0" standalone="no"?><!DOCTYPE svg PUBLIC "-//W3C//DTD SVG 1.1//EN" "http://www.w3.org/Graphics/SVG/1.1/DTD/svg11.dtd"><svg t="1529480796266" class="icon" style="" viewBox="0 0 1024 1024" version="1.1" xmlns="http://www.w3.org/2000/svg" p-id="1347" xmlns:xlink="http://www.w3.org/1999/xlink" width="200" height="200"><defs><style type="text/css"></style></defs><path d="M350.595448 297.31036l572.384275 0c19.787672 0 35.776831-16.027022 35.776831-35.776831 0-19.744693-15.989159-35.769668-35.776831-35.769668L350.595448 225.76386c-19.74981 0-35.775808 16.024975-35.775808 35.769668C314.818617 281.283338 330.845639 297.31036 350.595448 297.31036L350.595448 297.31036z" p-id="1348"></path><path d="M922.979724 476.182236 350.595448 476.182236c-19.74981 0-35.775808 16.027022-35.775808 35.770691 0 19.748786 16.027022 35.775808 35.775808 35.775808l572.384275 0c19.787672 0 35.776831-16.027022 35.776831-35.775808C958.756555 492.209258 942.767396 476.182236 922.979724 476.182236L922.979724 476.182236z" p-id="1349"></path><path d="M922.979724 726.601636 350.595448 726.601636c-19.74981 0-35.775808 15.989159-35.775808 35.775808 0 19.782555 16.027022 35.771715 35.775808 35.771715l572.384275 0c19.787672 0 35.776831-15.989159 35.776831-35.771715C958.756555 742.590795 942.767396 726.601636 922.979724 726.601636L922.979724 726.601636z" p-id="1350"></path><path d="M186.537975 210.942293c-13.241582-13.242606-31.856545-20.956288-50.590212-20.956288-18.72855 0-37.347606 7.713682-50.591235 20.956288-13.242606 13.243629-20.956288 31.862685-20.956288 50.590212s7.707542 37.347606 20.956288 50.590212c13.241582 13.241582 31.856545 20.956288 50.590212 20.956288 18.72855 0 37.347606-7.713682 50.591235-20.956288 13.242606-13.243629 20.956288-31.862685 20.956288-50.590212S199.786721 224.185922 186.537975 210.942293z" p-id="1351"></path><path d="M186.537975 711.877283c-13.241582-13.240559-31.856545-20.957311-50.590212-20.957311-18.72855 0-37.347606 7.716752-50.591235 20.957311-13.242606 13.244652-20.956288 31.862685-20.956288 50.590212 0 18.729573 7.707542 37.34863 20.956288 50.591235 13.241582 13.242606 31.856545 20.956288 50.590212 20.956288 18.72855 0 37.347606-7.712659 50.591235-20.956288 13.242606-13.242606 20.956288-31.862685 20.956288-50.591235C207.494263 743.739968 199.786721 725.122959 186.537975 711.877283z" p-id="1352"></path><path d="M186.537975 461.365786c-13.241582-13.241582-31.856545-20.956288-50.590212-20.956288-18.72855 0-37.347606 7.714705-50.591235 20.956288-13.242606 13.244652-20.956288 31.862685-20.956288 50.590212 0 18.72855 7.707542 37.34863 20.956288 50.591235 13.241582 13.242606 31.856545 20.956288 50.590212 20.956288 18.72855 0 37.347606-7.712659 50.591235-20.956288 13.242606-13.242606 20.956288-31.862685 20.956288-50.591235C207.494263 493.228471 199.786721 474.610438 186.537975 461.365786z" p-id="1353"></path></svg>