<?xml version="1.0" standalone="no"?><!DOCTYPE svg PUBLIC "-//W3C//DTD SVG 1.1//EN" "http://www.w3.org/Graphics/SVG/1.1/DTD/svg11.dtd"><svg class="icon" width="200px" height="200.00px" viewBox="0 0 1024 1024" version="1.1" xmlns="http://www.w3.org/2000/svg"><path d="M396.8 460.8h-153.6c-15.36 0-25.6 10.24-25.6 25.6s10.24 25.6 25.6 25.6h153.6c15.36 0 25.6-10.24 25.6-25.6s-12.8-25.6-25.6-25.6z m0 204.8h-153.6c-15.36 0-25.6 10.24-25.6 25.6s10.24 25.6 25.6 25.6h153.6c15.36 0 25.6-10.24 25.6-25.6s-12.8-25.6-25.6-25.6z m0-102.4h-153.6c-15.36 0-25.6 10.24-25.6 25.6s10.24 25.6 25.6 25.6h153.6c15.36 0 25.6-10.24 25.6-25.6s-12.8-25.6-25.6-25.6z m435.2-256h-53.76L509.44 156.16c-12.8-7.68-28.16-2.56-35.84 10.24-7.68 12.8-2.56 25.6 10.24 33.28l194.56 107.52h-460.8c-56.32 0-102.4 46.08-102.4 102.4v358.4c0 56.32 46.08 102.4 102.4 102.4h614.4c56.32 0 102.4-46.08 102.4-102.4V409.6c0-56.32-46.08-102.4-102.4-102.4z m51.2 460.8c0 28.16-23.04 51.2-51.2 51.2h-614.4c-28.16 0-51.2-23.04-51.2-51.2V409.6c0-28.16 23.04-51.2 51.2-51.2h614.4c28.16 0 51.2 23.04 51.2 51.2v358.4z m-230.4-332.8c-84.48 0-153.6 69.12-153.6 153.6s69.12 153.6 153.6 153.6 153.6-69.12 153.6-153.6-69.12-153.6-153.6-153.6z m0 256c-56.32 0-102.4-46.08-102.4-102.4s46.08-102.4 102.4-102.4 102.4 46.08 102.4 102.4-46.08 102.4-102.4 102.4z" /></svg>
