<svg width="200" height="200" viewBox="0 0 1024 1024" xmlns="http://www.w3.org/2000/svg"><path d="M312.889 995.556c-17.067 0-28.445-5.69-39.822-17.067-22.756-22.756-17.067-56.889 5.689-79.645L642.844 568.89c11.378-11.378 17.067-22.756 17.067-34.133 0-11.378-5.689-22.756-17.067-34.134l-369.777-312.89c-22.756-22.755-28.445-56.889-5.69-79.644 22.756-22.756 56.89-28.445 79.645-5.689l364.09 312.889C745.243 443.733 768 489.244 768 534.756s-17.067 85.333-51.2 119.466L352.711 984.178c-11.378 5.689-28.444 11.378-39.822 11.378z"/></svg>