<?xml version="1.0" standalone="no"?><!DOCTYPE svg PUBLIC "-//W3C//DTD SVG 1.1//EN" "http://www.w3.org/Graphics/SVG/1.1/DTD/svg11.dtd"><svg class="icon" width="200px" height="200.00px" viewBox="0 0 1024 1024" version="1.1" xmlns="http://www.w3.org/2000/svg"><path d="M129.728 450.816a21.333333 21.333333 0 0 1-21.333333-21.333333V199.189333a90.794667 90.794667 0 0 1 90.688-90.688h253.845333a21.333333 21.333333 0 1 1 0 42.666667H199.082667a48.085333 48.085333 0 0 0-48.021334 48.021333v230.293334a21.333333 21.333333 0 0 1-21.333333 21.333333zM452.757333 914.048H199.082667a90.794667 90.794667 0 0 1-90.688-90.688V592.042667a21.333333 21.333333 0 1 1 42.666666 0v231.317333a48.085333 48.085333 0 0 0 48.021334 48.021333h253.674666a21.333333 21.333333 0 1 1 0 42.666667zM823.253333 914.048H568.896a21.333333 21.333333 0 1 1 0-42.666667H823.253333a48.085333 48.085333 0 0 0 48.021334-48.021333V591.317333a21.333333 21.333333 0 1 1 42.666666 0v232.042667a90.794667 90.794667 0 0 1-90.688 90.688zM892.608 451.584a21.333333 21.333333 0 0 1-21.333333-21.333333V199.189333a48.085333 48.085333 0 0 0-48.021334-48.021333H568.981333a21.333333 21.333333 0 1 1 0-42.666667H823.253333a90.794667 90.794667 0 0 1 90.688 90.688v231.061334a21.333333 21.333333 0 0 1-21.333333 21.333333zM894.272 531.029333H129.962667a21.333333 21.333333 0 1 1 0-42.666666h764.309333a21.333333 21.333333 0 1 1 0 42.666666z" /></svg>
