<?xml version="1.0" standalone="no"?><!DOCTYPE svg PUBLIC "-//W3C//DTD SVG 1.1//EN" "http://www.w3.org/Graphics/SVG/1.1/DTD/svg11.dtd"><svg t="1525586746088" class="icon" style="" viewBox="0 0 1024 1024" version="1.1" xmlns="http://www.w3.org/2000/svg" p-id="8986" xmlns:xlink="http://www.w3.org/1999/xlink" width="200" height="200"><defs><style type="text/css"></style></defs><path d="M405.994667 597.994667q80 0 136-56t56-136-56-136-136-56-136 56-56 136 56 136 136 56zM661.994667 597.994667l212.010667 212.010667-64 64-212.010667-212.010667 0-34.005333-12.010667-12.010667q-76.010667 66.005333-180.010667 66.005333-116.010667 0-196.992-80t-81.002667-196.010667 81.002667-196.992 196.992-81.002667 196.010667 81.002667 80 196.992q0 104-66.005333 180.010667l12.010667 12.010667 34.005333 0z" p-id="8987"></path></svg>