<?xml version="1.0" standalone="no"?><!DOCTYPE svg PUBLIC "-//W3C//DTD SVG 1.1//EN" "http://www.w3.org/Graphics/SVG/1.1/DTD/svg11.dtd"><svg t="1529562635427" class="icon" style="" viewBox="0 0 1024 1024" version="1.1" xmlns="http://www.w3.org/2000/svg" p-id="6510" xmlns:xlink="http://www.w3.org/1999/xlink" width="200" height="200"><defs><style type="text/css"></style></defs><path d="M409.6 278.4" p-id="6511"></path><path d="M312.96 375.04" p-id="6512"></path><path d="M284.8 739.2l460.8 0 0-460.8L284.8 739.2zM641.92 617.6c-33.92 38.4-75.52 99.84-75.52 99.84s-37.12-40.96-56.32-55.68-66.56-41.6-66.56-41.6l80-49.28 40.32 72.96c0 0 23.04-60.8 69.12-117.76 35.84-44.16 87.04-81.28 87.04-81.28s-2.56 45.44 0 66.56c1.92 16 9.6 34.56 9.6 34.56S675.84 578.56 641.92 617.6z" p-id="6513"></path></svg>