<?xml version="1.0" standalone="no"?><!DOCTYPE svg PUBLIC "-//W3C//DTD SVG 1.1//EN" "http://www.w3.org/Graphics/SVG/1.1/DTD/svg11.dtd"><svg class="icon" width="200px" height="200.00px" viewBox="0 0 1024 1024" version="1.1" xmlns="http://www.w3.org/2000/svg"><path d="M173.354667 575.146667a322.986667 322.986667 0 0 1 0-83.626667L123.306667 444.373333l106.666666-184.746666 65.877334 19.84a319.658667 319.658667 0 0 1 72.448-41.898667L384 170.666667h213.333333l15.744 66.901333c26.026667 10.794667 50.346667 24.96 72.448 41.898667l65.877334-19.84 106.666666 184.746666-50.090666 47.146667a322.986667 322.986667 0 0 1 0 83.626667l50.090666 47.146666-106.666666 184.746667-65.877334-19.84a319.658667 319.658667 0 0 1-72.448 41.898667L597.333333 896H384l-15.744-66.901333a319.658667 319.658667 0 0 1-72.448-41.898667l-65.877333 19.84-106.666667-184.746667 50.090667-47.146666z m96.682666 130.688l43.093334-12.970667 34.688 26.666667c16.298667 12.544 34.133333 22.869333 53.12 30.72l40.362666 16.725333 10.282667 43.690667h78.165333l10.24-43.690667 40.405334-16.725333a234.325333 234.325333 0 0 0 53.12-30.72l34.688-26.666667 43.093333 12.970667 39.082667-67.669334-32.682667-30.72 5.632-43.349333a237.653333 237.653333 0 0 0 0-61.525333l-5.632-43.306667 32.682667-30.72-39.082667-67.712-43.093333 12.970667-34.688-26.666667a234.325333 234.325333 0 0 0-53.12-30.72l-40.362667-16.725333L529.749333 256h-78.165333l-10.24 43.690667-40.405333 16.725333a234.325333 234.325333 0 0 0-53.12 30.72l-34.688 26.666667-43.093334-12.970667-39.082666 67.669333 32.682666 30.72-5.632 43.349334a237.653333 237.653333 0 0 0 0 61.525333l5.632 43.306667-32.682666 30.72 39.082666 67.712zM490.666667 597.333333a64 64 0 1 0 0-128 64 64 0 0 0 0 128z m0 85.333334a149.333333 149.333333 0 1 1 0-298.666667 149.333333 149.333333 0 0 1 0 298.666667z"  /></svg>
