<?xml version="1.0" standalone="no"?><!DOCTYPE svg PUBLIC "-//W3C//DTD SVG 1.1//EN" "http://www.w3.org/Graphics/SVG/1.1/DTD/svg11.dtd"><svg t="1529561087659" class="icon" style="" viewBox="0 0 1024 1024" version="1.1" xmlns="http://www.w3.org/2000/svg" p-id="4235" xmlns:xlink="http://www.w3.org/1999/xlink" width="200" height="200"><defs><style type="text/css"></style></defs><path d="M511.69045 959.168436c-119.529327 0-231.837182-46.543036-316.368414-131.027196C110.793874 743.65708 64.296887 631.303176 64.296887 511.819898c0-119.529327 46.495964-231.838206 131.025149-316.368414C279.807219 110.898763 392.161123 64.379263 511.69045 64.379263c119.529327 0 231.836159 46.518476 316.368414 131.071198 84.573187 84.530209 131.025149 196.839087 131.025149 316.368414 0 119.527281-46.542013 231.837182-131.025149 316.321342S631.219777 959.168436 511.69045 959.168436zM511.69045 111.473861c-220.707704 0-400.298965 179.568748-400.298965 400.298965 0 220.75273 179.590238 400.299989 400.298965 400.299989 220.753753 0 400.299989-179.547259 400.299989-400.299989C911.990438 291.042609 732.444203 111.473861 511.69045 111.473861z" p-id="4236"></path><path d="M370.408703 394.038378c-38.954197 0-70.640873-31.686676-70.640873-70.640873 0-38.954197 31.685653-70.640873 70.640873-70.640873 38.953174 0 70.640873 31.686676 70.640873 70.640873C441.049576 362.351702 409.361877 394.038378 370.408703 394.038378zM370.408703 299.849182c-13.014408 0-23.545252 10.55438-23.545252 23.547299 0 12.992919 10.531867 23.547299 23.545252 23.547299 13.015432 0 23.547299-10.553357 23.547299-23.547299C393.956002 310.404586 383.424134 299.849182 370.408703 299.849182z" p-id="4237"></path><path d="M652.974243 394.038378c-38.953174 0-70.641897-31.686676-70.641897-70.640873 0-38.954197 31.688723-70.640873 70.641897-70.640873 38.954197 0 70.640873 31.686676 70.640873 70.640873C723.615117 362.351702 691.928441 394.038378 652.974243 394.038378zM652.974243 299.849182c-12.969383 0-23.548322 10.55438-23.548322 23.547299 0 12.992919 10.578939 23.547299 23.548322 23.547299 12.968359 0 23.546276-10.553357 23.546276-23.547299C676.519496 310.404586 665.94158 299.849182 652.974243 299.849182z" p-id="4238"></path><path d="M511.69045 817.883619c-168.783101 0-306.110793-137.326669-306.110793-306.110793 0-12.990872 10.531867-23.546276 23.547299-23.546276 13.015432 0 23.547299 10.555403 23.547299 23.546276 0 142.847405 116.171859 259.016195 259.017218 259.016195 142.846382 0 259.017218-116.167766 259.017218-259.016195 0-12.990872 10.578939-23.546276 23.547299-23.546276 12.969383 0 23.548322 10.555403 23.548322 23.546276C817.803289 680.55695 680.475598 817.883619 511.69045 817.883619z" p-id="4239"></path></svg>