<?xml version="1.0" standalone="no"?><!DOCTYPE svg PUBLIC "-//W3C//DTD SVG 1.1//EN" "http://www.w3.org/Graphics/SVG/1.1/DTD/svg11.dtd"><svg t="1525772660607" class="icon" style="" viewBox="0 0 1024 1024" version="1.1" xmlns="http://www.w3.org/2000/svg" p-id="2673" xmlns:xlink="http://www.w3.org/1999/xlink" width="200" height="200"><defs><style type="text/css"></style></defs><path d="M822.4 835.2h-620.8c-12.8 0-25.6-12.8-25.6-25.6s12.8-25.6 25.6-25.6h620.8c12.8 0 25.6 12.8 25.6 25.6s-12.8 25.6-25.6 25.6z m0-294.4h-620.8c-12.8 0-25.6-12.8-25.6-25.6s12.8-25.6 25.6-25.6h620.8c12.8 0 25.6 12.8 25.6 25.6s-12.8 25.6-25.6 25.6z m-537.6-300.8h-83.2c-12.8 0-25.6-12.8-25.6-25.6s12.8-25.6 25.6-25.6h83.2c19.2 0 25.6 12.8 25.6 25.6s-6.4 25.6-25.6 25.6z m537.6 0h-441.6c-12.8 0-25.6-12.8-25.6-25.6s12.8-25.6 25.6-25.6h435.2c12.8 0 25.6 12.8 25.6 25.6s-6.4 25.6-19.2 25.6z" p-id="2674"></path></svg>