<?xml version="1.0" standalone="no"?><!DOCTYPE svg PUBLIC "-//W3C//DTD SVG 1.1//EN" "http://www.w3.org/Graphics/SVG/1.1/DTD/svg11.dtd"><svg t="1525572343383" class="icon" style="" viewBox="0 0 1024 1024" version="1.1" xmlns="http://www.w3.org/2000/svg" p-id="3163" xmlns:xlink="http://www.w3.org/1999/xlink" width="200" height="200"><defs><style type="text/css"></style></defs><path d="M504.868571 699.977143a18.285714 18.285714 0 0 1 14.262858 0l186.989714 79.213714-17.554286-202.313143a18.285714 18.285714 0 0 1 4.388572-13.568l133.12-153.380571-197.851429-45.787429a18.285714 18.285714 0 0 1-11.52-8.411428L512 181.76l-104.704 173.970286a18.285714 18.285714 0 0 1-11.556571 8.411428l-197.851429 45.787429 133.12 153.380571a18.285714 18.285714 0 0 1 4.425143 13.531429l-17.554286 202.349714 186.989714-79.213714z m-200.704 124.708571a18.285714 18.285714 0 0 1-25.344-18.395428l19.529143-224.877715-147.968-170.422857a18.285714 18.285714 0 0 1 9.691429-29.805714l219.867428-50.944 116.406858-193.389714a18.285714 18.285714 0 0 1 31.305142 0l116.406858 193.389714 219.867428 50.944a18.285714 18.285714 0 0 1 9.691429 29.805714l-147.968 170.422857 19.529143 224.877715a18.285714 18.285714 0 0 1-25.344 18.432L512 736.658286l-207.835429 88.064z" p-id="3164"></path></svg>