<svg width="200" height="200" viewBox="0 0 1024 1024" xmlns="http://www.w3.org/2000/svg"><path d="M910.222 796.444c-17.066 0-34.133-5.688-45.51-17.066L551.821 409.6c-11.378-5.689-17.066-11.378-34.133-11.378-5.689 0-22.756 5.69-28.445 11.378L159.29 773.689c-22.756 22.755-56.889 22.755-79.645 5.689-22.755-22.756-22.755-56.89-5.688-79.645L403.91 335.644c28.445-34.133 73.956-51.2 119.467-51.2s85.333 22.756 119.466 56.89l312.89 364.088c22.755 22.756 17.066 56.89-5.69 79.645-11.377 5.689-28.444 11.377-39.822 11.377z"/></svg>