<?xml version="1.0" standalone="no"?><!DOCTYPE svg PUBLIC "-//W3C//DTD SVG 1.1//EN" "http://www.w3.org/Graphics/SVG/1.1/DTD/svg11.dtd"><svg class="icon" width="200px" height="200.00px" viewBox="0 0 1024 1024" version="1.1" xmlns="http://www.w3.org/2000/svg"><path d="M823.86944 102.4l51.65056 71.14752a20.48 20.48 0 1 0 33.1776-24.08448l-57.83552-79.58528a20.48 20.48 0 0 0-16.5888-8.43776H189.72672a20.48 20.48 0 0 0-16.5888 8.43776l-148.76672 204.8a20.48 20.48 0 0 0 33.1776 24.08448L200.13056 102.4h623.73888z m91.46368 125.952l51.11808 70.41024a20.48 20.48 0 1 0 33.1776-24.08448l-51.15904-70.41024a20.48 20.48 0 0 0-33.13664 24.08448zM24.69888 381.09184l55.62368 72.54016a20.48 20.48 0 0 0 32.48128-24.90368L57.22112 356.18816a20.48 20.48 0 1 0-32.52224 24.90368z m139.264 114.36032a20.48 20.48 0 1 0-32.48128 24.94464l364.25728 475.136a20.48 20.48 0 0 0 32.52224 0l273.89952-357.29408a20.48 20.48 0 1 0-32.52224-24.94464l-257.6384 336.0768-347.99616-453.91872z m697.18016 65.82272l138.15808-180.18304a20.48 20.48 0 0 0-32.52224-24.90368l-138.11712 180.18304a20.48 20.48 0 0 0 32.48128 24.90368zM654.9504 460.75904c0 3.19488-2.00704 4.79232-5.98016 4.79232-7.20896 0-14.49984 5.20192-21.87264 15.5648-7.3728 10.40384-16.50688 27.77088-27.27936 52.18304l-63.52896 141.43488a399.9744 399.9744 0 0 1-9.29792 21.2992c-2.62144 5.36576-4.7104 8.06912-6.30784 8.06912h-20.35712c-1.6384 0-3.03104-1.18784-4.21888-3.60448-0.8192-1.59744-4.17792-9.0112-10.19904-22.15936a19970.048 19970.048 0 0 1-38.33856-89.2928 1592.1152 1592.1152 0 0 0-42.5984-89.94816c-7.168-14.336-13.06624-23.552-17.6128-27.56608-4.62848-3.97312-11.91936-5.98016-21.9136-5.98016-3.19488 0-4.79232-1.6384-4.79232-4.79232 0-5.61152 0.2048-9.0112 0.6144-10.19904 0.4096-1.59744 1.76128-2.41664 4.17792-2.41664h119.27552c5.20192 0 7.7824 1.4336 7.7824 4.21888v10.19904c0 1.96608-2.99008 2.99008-9.0112 2.99008-8.35584 0-15.1552 1.39264-20.35712 4.17792-5.20192 2.82624-7.7824 7.61856-7.7824 14.41792 0 7.168 10.77248 35.55328 32.3584 85.11488 17.2032 39.5264 29.57312 66.92864 37.19168 82.08384l54.51776-133.03808c3.19488-7.61856 5.81632-14.90944 7.7824-21.87264 2.048-7.00416 3.03104-12.288 3.03104-15.89248 0-5.20192-3.11296-9.0112-9.29792-11.38688-6.18496-2.41664-14.86848-3.60448-26.09152-3.60448-3.97312 0-5.98016-1.2288-5.98016-3.60448v-10.19904c0-2.37568 1.2288-3.60448 3.60448-3.60448h96.50176c3.97312 0 5.98016 1.80224 5.98016 5.40672v7.20896zM143.36 327.68h733.184a20.48 20.48 0 1 0 0-40.96H143.36a20.48 20.48 0 0 0 0 40.96z" /></svg>
